<svg width="0" height="0" class="hidden">
  <symbol version="1.1" id="menu" xmlns="http://www.w3.org/2000/svg" xmlns:xlink="http://www.w3.org/1999/xlink" x="0px" y="0px" enable-background="new 0 0 122.879 103.609" xml:space="preserve" viewBox="0 0 122.879 103.609">
    <g>
      <path fill-rule="evenodd" clip-rule="evenodd" d="M10.368,0h102.144c5.703,0,10.367,4.665,10.367,10.367v0 c0,5.702-4.664,10.368-10.367,10.368H10.368C4.666,20.735,0,16.07,0,10.368v0C0,4.665,4.666,0,10.368,0L10.368,0z M10.368,82.875 h102.144c5.703,0,10.367,4.665,10.367,10.367l0,0c0,5.702-4.664,10.367-10.367,10.367H10.368C4.666,103.609,0,98.944,0,93.242l0,0 C0,87.54,4.666,82.875,10.368,82.875L10.368,82.875z M10.368,41.438h102.144c5.703,0,10.367,4.665,10.367,10.367l0,0 c0,5.702-4.664,10.368-10.367,10.368H10.368C4.666,62.173,0,57.507,0,51.805l0,0C0,46.103,4.666,41.438,10.368,41.438 L10.368,41.438z"></path>
    </g>
  </symbol>
  <symbol xmlns="http://www.w3.org/2000/svg" viewBox="0 0 512 512" id="close">
    <path d="M443.6 387.1L312.4 255.4l131.5-130c5.4-5.4 5.4-14.2 0-19.6l-37.4-37.6c-2.6-2.6-6.1-4-9.8-4-3.7 0-7.2 1.5-9.8 4L256 197.8 124.9 68.3c-2.6-2.6-6.1-4-9.8-4-3.7 0-7.2 1.5-9.8 4L68 105.9c-5.4 5.4-5.4 14.2 0 19.6l131.5 130L68.4 387.1c-2.6 2.6-4.1 6.1-4.1 9.8 0 3.7 1.4 7.2 4.1 9.8l37.4 37.6c2.7 2.7 6.2 4.1 9.8 4.1 3.5 0 7.1-1.3 9.8-4.1L256 313.1l130.7 131.1c2.7 2.7 6.2 4.1 9.8 4.1 3.5 0 7.1-1.3 9.8-4.1l37.4-37.6c2.6-2.6 4.1-6.1 4.1-9.8-.1-3.6-1.6-7.1-4.2-9.7z"></path>
  </symbol>
   
  </svg>
  

 